<svg width="97" height="20" viewBox="0 0 97 20" fill="none" xmlns="http://www.w3.org/2000/svg">
<path d="M49.6715 9.44187C48.8745 9.44187 48.3006 9.70364 47.718 9.97013V16.0058C48.2766 16.0605 48.5944 16.0605 49.1251 16.0605C51.0377 16.0605 51.2993 15.1818 51.2993 13.957V11.0736C51.2993 10.1688 51 9.44187 49.6715 9.44187ZM36.9721 9.1123C35.6451 9.1123 35.3434 9.84241 35.3434 10.7464V11.2537H38.6007V10.7464C38.6003 9.84201 38.2974 9.1123 36.9721 9.1123ZM12.3714 15.3951C12.3714 16.1094 12.7077 16.4812 13.4509 16.4812C14.2483 16.4812 14.7197 16.221 15.3018 15.9525V14.5219H13.5585C12.7336 14.5223 12.3714 14.6752 12.3714 15.3951ZM62.0252 9.44187C60.6963 9.44187 60.2359 10.1688 60.2359 11.0728V14.376C60.2359 15.2835 60.6963 16.0113 62.0252 16.0113C63.3502 16.0113 63.8145 15.2827 63.8145 14.376V11.0728C63.8141 10.1688 63.3502 9.44187 62.0252 9.44187ZM5.85849 19.0973H1.95309V9.62124H0V6.35507H1.95309V4.39458C1.95309 1.7304 3.05534 0.145996 6.18532 0.145996H8.79284V3.41217H7.16422C5.94491 3.41217 5.86399 3.86868 5.86399 4.72021L5.85849 6.35468H8.8117L8.46602 9.62085H5.85849V19.0973ZM19.21 19.1217H15.9543L15.8145 18.2962C14.3273 19.1217 13.0003 19.2558 12.1251 19.2558C9.73679 19.2558 8.46641 17.6572 8.46641 15.4463C8.46641 12.8385 9.94891 11.907 12.602 11.907H15.3022V11.3432C15.3022 10.0111 15.1498 9.62085 13.1072 9.62085H9.76664L10.0935 6.35468H13.7443C18.2272 6.35468 19.21 7.77508 19.21 11.3696V19.1217ZM30.2812 9.86093C28.2554 9.51244 27.6733 9.43596 26.6991 9.43596C24.9479 9.43596 24.4184 9.82348 24.4184 11.3133V14.1328C24.4184 15.623 24.9479 16.0117 26.6991 16.0117C27.6733 16.0117 28.2554 15.9348 30.2812 15.5851V18.7697C28.506 19.1694 27.3504 19.2739 26.3738 19.2739C22.1789 19.2739 20.513 17.0635 20.513 13.8694V11.5813C20.513 8.38574 22.1789 6.17057 26.3738 6.17057C27.3504 6.17057 28.5068 6.27662 30.2812 6.67597V9.86093ZM42.5061 13.8694H35.343V14.1328C35.343 15.623 35.8726 16.0117 37.623 16.0117C39.1974 16.0117 40.1574 15.9348 42.1797 15.5851V18.7697C40.2297 19.1694 39.2139 19.2739 37.2993 19.2739C33.1048 19.2739 31.4369 17.0635 31.4369 13.8694V11.2533C31.4369 8.45985 32.675 6.17057 36.9725 6.17057C41.2707 6.17057 42.5065 8.43265 42.5065 11.2533L42.5061 13.8694ZM55.2051 13.9294C55.2051 17.0162 54.3252 19.2676 48.9935 19.2676C47.0695 19.2676 45.9385 19.0973 43.813 18.7693V1.12644L47.718 0.473992V6.64483C48.5614 6.33024 49.6546 6.17097 50.6488 6.17097C54.555 6.17097 55.2055 7.92646 55.2055 10.7456V13.9294H55.2051ZM67.7242 13.9968C67.7242 16.6594 66.6271 19.2424 62.0382 19.2424C57.4465 19.2424 56.3294 16.6594 56.3294 13.9968V11.426C56.3294 8.76262 57.4465 6.17925 62.0382 6.17925C66.6271 6.17925 67.7242 8.76262 67.7242 11.426V13.9968ZM80.2327 13.9968C80.2327 16.6594 79.1348 19.2424 74.5475 19.2424C69.9558 19.2424 68.8379 16.6594 68.8379 13.9968V11.426C68.8379 8.76262 69.9558 6.17925 74.5475 6.17925C79.1348 6.17925 80.2327 8.76262 80.2327 11.426V13.9968ZM93.0724 19.0973H88.8382L85.2585 13.1086V19.0973H81.3531V1.12644L85.2585 0.473992V12.043L88.8382 6.35507H93.0724L89.1635 12.5618L93.0724 19.0973ZM74.5341 9.44187C73.2076 9.44187 72.7472 10.1688 72.7472 11.0728V14.376C72.7472 15.2835 73.2076 16.0113 74.5341 16.0113C75.8591 16.0113 76.3278 15.2827 76.3278 14.376V11.0728C76.3278 10.1688 75.8591 9.44187 74.5341 9.44187ZM95.302 16.8628C95.9596 16.8628 96.4836 17.4001 96.4836 18.0711C96.4836 18.7527 95.9596 19.2845 95.2965 19.2845C94.6386 19.2845 94.1036 18.7523 94.1036 18.0711C94.1036 17.4001 94.6386 16.8628 95.2965 16.8628H95.302ZM95.2958 17.0508C94.7666 17.0508 94.333 17.5074 94.333 18.0719C94.333 18.6463 94.7666 19.0981 95.302 19.0981C95.8367 19.1036 96.2648 18.6463 96.2648 18.077C96.2648 17.5082 95.8367 17.0508 95.302 17.0508H95.2958ZM95.0711 18.7756H94.8578V17.4265C94.9697 17.4104 95.0766 17.395 95.2368 17.395C95.4411 17.395 95.5743 17.4372 95.6548 17.4967C95.7349 17.5562 95.777 17.6473 95.777 17.7762C95.777 17.9532 95.6603 18.0609 95.5161 18.1042V18.1149C95.6336 18.1366 95.7141 18.2426 95.74 18.4413C95.7722 18.6514 95.8045 18.7322 95.8261 18.7756H95.6014C95.5692 18.733 95.5362 18.6084 95.5106 18.4322C95.4784 18.2596 95.3932 18.1949 95.2207 18.1949H95.0715V18.7756H95.0711ZM95.0711 18.0285H95.2266C95.4022 18.0285 95.5527 17.9639 95.5527 17.7975C95.5527 17.6785 95.4666 17.5606 95.2266 17.5606C95.1567 17.5606 95.1076 17.5665 95.0711 17.5712V18.0285Z" fill="white"/>
</svg>
