<svg width="228" height="24" viewBox="0 0 228 24" fill="none" xmlns="http://www.w3.org/2000/svg">
<path d="M12.177 5.076V18H10.26V12.177H3.519V18H1.593V5.076H3.519V10.782H10.26V5.076H12.177ZM18.63 8.712C19.302 8.712 19.908 8.823 20.448 9.045C20.994 9.261 21.456 9.576 21.834 9.99C22.218 10.398 22.512 10.893 22.716 11.475C22.92 12.051 23.022 12.699 23.022 13.419C23.022 14.139 22.92 14.79 22.716 15.372C22.512 15.954 22.218 16.449 21.834 16.857C21.456 17.265 20.994 17.58 20.448 17.802C19.908 18.018 19.302 18.126 18.63 18.126C17.952 18.126 17.34 18.018 16.794 17.802C16.254 17.58 15.792 17.265 15.408 16.857C15.024 16.449 14.727 15.954 14.517 15.372C14.313 14.79 14.211 14.139 14.211 13.419C14.211 12.699 14.313 12.051 14.517 11.475C14.727 10.893 15.024 10.398 15.408 9.99C15.792 9.576 16.254 9.261 16.794 9.045C17.34 8.823 17.952 8.712 18.63 8.712ZM18.63 16.758C19.494 16.758 20.139 16.467 20.565 15.885C20.991 15.303 21.204 14.484 21.204 13.428C21.204 12.372 20.991 11.553 20.565 10.971C20.139 10.383 19.494 10.089 18.63 10.089C17.754 10.089 17.1 10.383 16.668 10.971C16.242 11.553 16.029 12.372 16.029 13.428C16.029 14.484 16.242 15.303 16.668 15.885C17.1 16.467 17.754 16.758 18.63 16.758ZM24.981 18V8.856H26.034C26.28 8.856 26.433 8.973 26.493 9.207L26.619 10.08C26.955 9.678 27.327 9.351 27.735 9.099C28.149 8.841 28.632 8.712 29.184 8.712C29.79 8.712 30.282 8.88 30.66 9.216C31.038 9.546 31.314 9.996 31.488 10.566C31.62 10.242 31.791 9.963 32.001 9.729C32.211 9.495 32.445 9.303 32.703 9.153C32.961 9.003 33.234 8.892 33.522 8.82C33.816 8.748 34.113 8.712 34.413 8.712C34.899 8.712 35.331 8.79 35.709 8.946C36.093 9.096 36.417 9.318 36.681 9.612C36.945 9.906 37.146 10.269 37.284 10.701C37.422 11.133 37.491 11.625 37.491 12.177V18H35.727V12.177C35.727 11.493 35.577 10.977 35.277 10.629C34.983 10.281 34.551 10.107 33.981 10.107C33.729 10.107 33.489 10.152 33.261 10.242C33.033 10.326 32.832 10.455 32.658 10.629C32.49 10.803 32.355 11.019 32.253 11.277C32.157 11.535 32.109 11.835 32.109 12.177V18H30.345V12.177C30.345 11.469 30.204 10.947 29.922 10.611C29.64 10.275 29.226 10.107 28.68 10.107C28.302 10.107 27.951 10.206 27.627 10.404C27.303 10.602 27.006 10.872 26.736 11.214V18H24.981ZM45.9091 12.411C45.9091 12.063 45.8581 11.742 45.7561 11.448C45.6601 11.154 45.5161 10.899 45.3241 10.683C45.1321 10.467 44.8981 10.299 44.6221 10.179C44.3461 10.059 44.0281 9.999 43.6681 9.999C42.9301 9.999 42.3481 10.212 41.9221 10.638C41.5021 11.064 41.2351 11.655 41.1211 12.411H45.9091ZM47.3581 16.695C47.1421 16.947 46.8931 17.166 46.6111 17.352C46.3291 17.532 46.0291 17.679 45.7111 17.793C45.3931 17.907 45.0631 17.991 44.7211 18.045C44.3851 18.099 44.0521 18.126 43.7221 18.126C43.0921 18.126 42.5071 18.021 41.9671 17.811C41.4331 17.595 40.9681 17.283 40.5721 16.875C40.1821 16.461 39.8761 15.951 39.6541 15.345C39.4381 14.733 39.3301 14.031 39.3301 13.239C39.3301 12.603 39.4291 12.012 39.6271 11.466C39.8251 10.914 40.1071 10.434 40.4731 10.026C40.8451 9.618 41.2981 9.297 41.8321 9.063C42.3661 8.829 42.9661 8.712 43.6321 8.712C44.1901 8.712 44.7031 8.805 45.1711 8.991C45.6451 9.171 46.0531 9.435 46.3951 9.783C46.7371 10.131 47.0041 10.56 47.1961 11.07C47.3941 11.58 47.4931 12.162 47.4931 12.816C47.4931 13.086 47.4631 13.269 47.4031 13.365C47.3431 13.455 47.2321 13.5 47.0701 13.5H41.0761C41.0941 14.046 41.1721 14.523 41.3101 14.931C41.4481 15.333 41.6371 15.669 41.8771 15.939C42.1231 16.209 42.4141 16.41 42.7501 16.542C43.0861 16.674 43.4611 16.74 43.8751 16.74C44.2651 16.74 44.6011 16.695 44.8831 16.605C45.1711 16.515 45.4171 16.419 45.6211 16.317C45.8311 16.209 46.0051 16.11 46.1431 16.02C46.2871 15.93 46.4131 15.885 46.5211 15.885C46.6651 15.885 46.7761 15.939 46.8541 16.047L47.3581 16.695Z" fill="#8AB7C6"/>
<path d="M78 18L84 12L78 6" stroke="white" stroke-width="2" stroke-linecap="round" stroke-linejoin="round"/>
<path d="M123.62 15.228C123.728 15.228 123.821 15.27 123.899 15.354L124.655 16.182C124.127 16.806 123.482 17.289 122.72 17.631C121.964 17.973 121.052 18.144 119.984 18.144C119.048 18.144 118.199 17.982 117.437 17.658C116.681 17.334 116.033 16.881 115.493 16.299C114.959 15.717 114.545 15.021 114.251 14.211C113.957 13.401 113.81 12.51 113.81 11.538C113.81 10.566 113.963 9.675 114.269 8.865C114.581 8.055 115.016 7.359 115.574 6.777C116.132 6.195 116.798 5.742 117.572 5.418C118.352 5.094 119.213 4.932 120.155 4.932C121.073 4.932 121.889 5.082 122.603 5.382C123.317 5.682 123.938 6.081 124.466 6.579L123.836 7.47C123.794 7.536 123.74 7.59 123.674 7.632C123.614 7.674 123.533 7.695 123.431 7.695C123.317 7.695 123.182 7.638 123.026 7.524C122.876 7.41 122.675 7.284 122.423 7.146C122.177 7.002 121.871 6.873 121.505 6.759C121.139 6.645 120.683 6.588 120.137 6.588C119.495 6.588 118.907 6.702 118.373 6.93C117.839 7.152 117.377 7.476 116.987 7.902C116.603 8.322 116.303 8.841 116.087 9.459C115.877 10.071 115.772 10.764 115.772 11.538C115.772 12.324 115.883 13.023 116.105 13.635C116.327 14.247 116.633 14.766 117.023 15.192C117.413 15.618 117.872 15.942 118.4 16.164C118.928 16.386 119.498 16.497 120.11 16.497C120.482 16.497 120.815 16.476 121.109 16.434C121.409 16.386 121.682 16.317 121.928 16.227C122.18 16.137 122.417 16.023 122.639 15.885C122.861 15.741 123.08 15.57 123.296 15.372C123.344 15.33 123.395 15.297 123.449 15.273C123.503 15.243 123.56 15.228 123.62 15.228ZM129.943 8.712C130.615 8.712 131.221 8.823 131.761 9.045C132.307 9.261 132.769 9.576 133.147 9.99C133.531 10.398 133.825 10.893 134.029 11.475C134.233 12.051 134.335 12.699 134.335 13.419C134.335 14.139 134.233 14.79 134.029 15.372C133.825 15.954 133.531 16.449 133.147 16.857C132.769 17.265 132.307 17.58 131.761 17.802C131.221 18.018 130.615 18.126 129.943 18.126C129.265 18.126 128.653 18.018 128.107 17.802C127.567 17.58 127.105 17.265 126.721 16.857C126.337 16.449 126.04 15.954 125.83 15.372C125.626 14.79 125.524 14.139 125.524 13.419C125.524 12.699 125.626 12.051 125.83 11.475C126.04 10.893 126.337 10.398 126.721 9.99C127.105 9.576 127.567 9.261 128.107 9.045C128.653 8.823 129.265 8.712 129.943 8.712ZM129.943 16.758C130.807 16.758 131.452 16.467 131.878 15.885C132.304 15.303 132.517 14.484 132.517 13.428C132.517 12.372 132.304 11.553 131.878 10.971C131.452 10.383 130.807 10.089 129.943 10.089C129.067 10.089 128.413 10.383 127.981 10.971C127.555 11.553 127.342 12.372 127.342 13.428C127.342 14.484 127.555 15.303 127.981 15.885C128.413 16.467 129.067 16.758 129.943 16.758ZM136.294 18V8.856H137.347C137.593 8.856 137.746 8.973 137.806 9.207L137.932 10.08C138.268 9.678 138.64 9.351 139.048 9.099C139.462 8.841 139.945 8.712 140.497 8.712C141.103 8.712 141.595 8.88 141.973 9.216C142.351 9.546 142.627 9.996 142.801 10.566C142.933 10.242 143.104 9.963 143.314 9.729C143.524 9.495 143.758 9.303 144.016 9.153C144.274 9.003 144.547 8.892 144.835 8.82C145.129 8.748 145.426 8.712 145.726 8.712C146.212 8.712 146.644 8.79 147.022 8.946C147.406 9.096 147.73 9.318 147.994 9.612C148.258 9.906 148.459 10.269 148.597 10.701C148.735 11.133 148.804 11.625 148.804 12.177V18H147.04V12.177C147.04 11.493 146.89 10.977 146.59 10.629C146.296 10.281 145.864 10.107 145.294 10.107C145.042 10.107 144.802 10.152 144.574 10.242C144.346 10.326 144.145 10.455 143.971 10.629C143.803 10.803 143.668 11.019 143.566 11.277C143.47 11.535 143.422 11.835 143.422 12.177V18H141.658V12.177C141.658 11.469 141.517 10.947 141.235 10.611C140.953 10.275 140.539 10.107 139.993 10.107C139.615 10.107 139.264 10.206 138.94 10.404C138.616 10.602 138.319 10.872 138.049 11.214V18H136.294ZM152.92 15.75C153.208 16.128 153.517 16.392 153.847 16.542C154.183 16.692 154.558 16.767 154.972 16.767C155.776 16.767 156.397 16.479 156.835 15.903C157.279 15.321 157.501 14.475 157.501 13.365C157.501 12.783 157.45 12.288 157.348 11.88C157.252 11.466 157.108 11.13 156.916 10.872C156.73 10.608 156.499 10.416 156.223 10.296C155.947 10.17 155.635 10.107 155.287 10.107C154.777 10.107 154.333 10.221 153.955 10.449C153.583 10.677 153.238 11.001 152.92 11.421V15.75ZM152.83 10.224C153.022 9.996 153.226 9.789 153.442 9.603C153.664 9.411 153.901 9.249 154.153 9.117C154.405 8.979 154.672 8.874 154.954 8.802C155.242 8.724 155.548 8.685 155.872 8.685C156.394 8.685 156.865 8.787 157.285 8.991C157.711 9.195 158.074 9.495 158.374 9.891C158.674 10.287 158.905 10.776 159.067 11.358C159.235 11.94 159.319 12.609 159.319 13.365C159.319 14.043 159.226 14.673 159.04 15.255C158.86 15.831 158.599 16.332 158.257 16.758C157.921 17.184 157.507 17.52 157.015 17.766C156.529 18.006 155.98 18.126 155.368 18.126C154.822 18.126 154.354 18.036 153.964 17.856C153.574 17.676 153.226 17.424 152.92 17.1V21.069H151.165V8.856H152.218C152.464 8.856 152.617 8.973 152.677 9.207L152.83 10.224ZM166.204 13.941C165.49 13.965 164.884 14.022 164.386 14.112C163.888 14.196 163.483 14.31 163.171 14.454C162.859 14.598 162.634 14.769 162.496 14.967C162.358 15.159 162.289 15.375 162.289 15.615C162.289 15.843 162.325 16.041 162.397 16.209C162.475 16.371 162.577 16.506 162.703 16.614C162.835 16.716 162.988 16.791 163.162 16.839C163.336 16.887 163.525 16.911 163.729 16.911C163.999 16.911 164.245 16.884 164.467 16.83C164.695 16.776 164.908 16.701 165.106 16.605C165.304 16.503 165.493 16.38 165.673 16.236C165.853 16.092 166.03 15.927 166.204 15.741V13.941ZM161.056 10.134C161.566 9.648 162.118 9.285 162.712 9.045C163.312 8.805 163.969 8.685 164.683 8.685C165.205 8.685 165.667 8.772 166.069 8.946C166.471 9.114 166.81 9.351 167.086 9.657C167.362 9.963 167.569 10.329 167.707 10.755C167.851 11.181 167.923 11.652 167.923 12.168V18H167.14C166.966 18 166.834 17.973 166.744 17.919C166.654 17.859 166.582 17.751 166.528 17.595L166.339 16.794C166.105 17.01 165.874 17.202 165.646 17.37C165.418 17.532 165.178 17.673 164.926 17.793C164.68 17.907 164.416 17.994 164.134 18.054C163.852 18.114 163.54 18.144 163.198 18.144C162.838 18.144 162.499 18.096 162.181 18C161.869 17.898 161.596 17.745 161.362 17.541C161.128 17.337 160.942 17.082 160.804 16.776C160.672 16.47 160.606 16.113 160.606 15.705C160.606 15.345 160.702 15 160.894 14.67C161.092 14.334 161.41 14.034 161.848 13.77C162.292 13.506 162.868 13.29 163.576 13.122C164.29 12.954 165.166 12.858 166.204 12.834V12.168C166.204 11.478 166.057 10.962 165.763 10.62C165.469 10.278 165.037 10.107 164.467 10.107C164.083 10.107 163.759 10.155 163.495 10.251C163.237 10.347 163.012 10.455 162.82 10.575C162.634 10.689 162.469 10.794 162.325 10.89C162.187 10.986 162.043 11.034 161.893 11.034C161.773 11.034 161.668 11.001 161.578 10.935C161.494 10.869 161.425 10.791 161.371 10.701L161.056 10.134ZM171.919 10.125C172.117 9.915 172.324 9.723 172.54 9.549C172.756 9.375 172.984 9.228 173.224 9.108C173.47 8.982 173.731 8.886 174.007 8.82C174.289 8.748 174.589 8.712 174.907 8.712C175.411 8.712 175.852 8.796 176.23 8.964C176.614 9.132 176.935 9.369 177.193 9.675C177.451 9.975 177.646 10.338 177.778 10.764C177.91 11.19 177.976 11.661 177.976 12.177V18H176.212V12.177C176.212 11.523 176.062 11.016 175.762 10.656C175.462 10.29 175.003 10.107 174.385 10.107C173.935 10.107 173.512 10.215 173.116 10.431C172.726 10.641 172.363 10.929 172.027 11.295V18H170.272V8.856H171.325C171.571 8.856 171.724 8.973 171.784 9.207L171.919 10.125ZM188.108 8.856L183.032 20.655C182.978 20.787 182.906 20.889 182.816 20.961C182.726 21.033 182.594 21.069 182.42 21.069H181.115L182.789 17.424L179.036 8.856H180.566C180.716 8.856 180.833 8.892 180.917 8.964C181.001 9.036 181.061 9.117 181.097 9.207L183.419 14.697C183.467 14.835 183.512 14.976 183.554 15.12C183.602 15.258 183.641 15.396 183.671 15.534C183.713 15.39 183.758 15.249 183.806 15.111C183.854 14.967 183.905 14.826 183.959 14.688L186.2 9.207C186.242 9.105 186.308 9.021 186.398 8.955C186.488 8.889 186.59 8.856 186.704 8.856H188.108ZM196.425 18.144C195.687 18.144 195.117 17.937 194.715 17.523C194.319 17.109 194.121 16.518 194.121 15.75V10.278H193.059C192.957 10.278 192.87 10.248 192.798 10.188C192.732 10.122 192.699 10.026 192.699 9.9V9.189L194.184 8.982L194.58 6.255C194.604 6.153 194.649 6.075 194.715 6.021C194.787 5.961 194.877 5.931 194.985 5.931H195.876V9H198.468V10.278H195.876V15.633C195.876 15.993 195.963 16.263 196.137 16.443C196.317 16.617 196.545 16.704 196.821 16.704C196.983 16.704 197.121 16.683 197.235 16.641C197.355 16.599 197.457 16.554 197.541 16.506C197.625 16.452 197.697 16.404 197.757 16.362C197.817 16.32 197.871 16.299 197.919 16.299C197.979 16.299 198.024 16.314 198.054 16.344C198.09 16.368 198.126 16.41 198.162 16.47L198.684 17.316C198.396 17.58 198.054 17.784 197.658 17.928C197.262 18.072 196.851 18.144 196.425 18.144ZM208.077 8.856L203.001 20.655C202.947 20.787 202.875 20.889 202.785 20.961C202.695 21.033 202.563 21.069 202.389 21.069H201.084L202.758 17.424L199.005 8.856H200.535C200.685 8.856 200.802 8.892 200.886 8.964C200.97 9.036 201.03 9.117 201.066 9.207L203.388 14.697C203.436 14.835 203.481 14.976 203.523 15.12C203.571 15.258 203.61 15.396 203.64 15.534C203.682 15.39 203.727 15.249 203.775 15.111C203.823 14.967 203.874 14.826 203.928 14.688L206.169 9.207C206.211 9.105 206.277 9.021 206.367 8.955C206.457 8.889 206.559 8.856 206.673 8.856H208.077ZM211.174 15.75C211.462 16.128 211.771 16.392 212.101 16.542C212.437 16.692 212.812 16.767 213.226 16.767C214.03 16.767 214.651 16.479 215.089 15.903C215.533 15.321 215.755 14.475 215.755 13.365C215.755 12.783 215.704 12.288 215.602 11.88C215.506 11.466 215.362 11.13 215.17 10.872C214.984 10.608 214.753 10.416 214.477 10.296C214.201 10.17 213.889 10.107 213.541 10.107C213.031 10.107 212.587 10.221 212.209 10.449C211.837 10.677 211.492 11.001 211.174 11.421V15.75ZM211.084 10.224C211.276 9.996 211.48 9.789 211.696 9.603C211.918 9.411 212.155 9.249 212.407 9.117C212.659 8.979 212.926 8.874 213.208 8.802C213.496 8.724 213.802 8.685 214.126 8.685C214.648 8.685 215.119 8.787 215.539 8.991C215.965 9.195 216.328 9.495 216.628 9.891C216.928 10.287 217.159 10.776 217.321 11.358C217.489 11.94 217.573 12.609 217.573 13.365C217.573 14.043 217.48 14.673 217.294 15.255C217.114 15.831 216.853 16.332 216.511 16.758C216.175 17.184 215.761 17.52 215.269 17.766C214.783 18.006 214.234 18.126 213.622 18.126C213.076 18.126 212.608 18.036 212.218 17.856C211.828 17.676 211.48 17.424 211.174 17.1V21.069H209.419V8.856H210.472C210.718 8.856 210.871 8.973 210.931 9.207L211.084 10.224ZM225.601 12.411C225.601 12.063 225.55 11.742 225.448 11.448C225.352 11.154 225.208 10.899 225.016 10.683C224.824 10.467 224.59 10.299 224.314 10.179C224.038 10.059 223.72 9.999 223.36 9.999C222.622 9.999 222.04 10.212 221.614 10.638C221.194 11.064 220.927 11.655 220.813 12.411H225.601ZM227.05 16.695C226.834 16.947 226.585 17.166 226.303 17.352C226.021 17.532 225.721 17.679 225.403 17.793C225.085 17.907 224.755 17.991 224.413 18.045C224.077 18.099 223.744 18.126 223.414 18.126C222.784 18.126 222.199 18.021 221.659 17.811C221.125 17.595 220.66 17.283 220.264 16.875C219.874 16.461 219.568 15.951 219.346 15.345C219.13 14.733 219.022 14.031 219.022 13.239C219.022 12.603 219.121 12.012 219.319 11.466C219.517 10.914 219.799 10.434 220.165 10.026C220.537 9.618 220.99 9.297 221.524 9.063C222.058 8.829 222.658 8.712 223.324 8.712C223.882 8.712 224.395 8.805 224.863 8.991C225.337 9.171 225.745 9.435 226.087 9.783C226.429 10.131 226.696 10.56 226.888 11.07C227.086 11.58 227.185 12.162 227.185 12.816C227.185 13.086 227.155 13.269 227.095 13.365C227.035 13.455 226.924 13.5 226.762 13.5H220.768C220.786 14.046 220.864 14.523 221.002 14.931C221.14 15.333 221.329 15.669 221.569 15.939C221.815 16.209 222.106 16.41 222.442 16.542C222.778 16.674 223.153 16.74 223.567 16.74C223.957 16.74 224.293 16.695 224.575 16.605C224.863 16.515 225.109 16.419 225.313 16.317C225.523 16.209 225.697 16.11 225.835 16.02C225.979 15.93 226.105 15.885 226.213 15.885C226.357 15.885 226.468 15.939 226.546 16.047L227.05 16.695Z" fill="#46DBBF"/>
</svg>
