<svg width="100" height="28" viewBox="0 0 100 28" fill="none" xmlns="http://www.w3.org/2000/svg">
<path d="M5.72982 0C4.81531 0 3.62973 0.961639 2.93033 1.60177C1.39269 2.95519 0 5.44386 0 7.44139C0 10.2798 2.43433 11.3512 3.05005 11.3512C3.25305 11.3512 3.42612 11.2473 3.42612 10.9742C3.42612 10.7601 3.28919 10.5819 3.15295 10.3989C2.58919 9.54423 2.40811 8.7286 2.40811 7.6285C2.40811 5.33487 3.47487 3.23253 4.35976 2.27049C4.52292 2.09639 4.89159 1.72029 5.0019 1.72029C5.11141 1.72029 5.13853 1.80873 5.13853 2.0821L5.03573 17.0944C5.03573 19.4412 4.35285 20.3735 4.35285 20.9261C4.35285 21.1689 4.45885 21.2319 4.66126 21.2319C5.61961 21.2319 6.57467 20.0736 6.84524 19.6512C7.68428 18.2141 7.89008 17.0922 7.89008 13.8563V1.24146C7.89008 0.899998 7.79349 0.752397 7.46636 0.541865C6.98798 0.240608 6.43983 0 5.72982 0ZM33.1315 0.0418881C32.6808 0.0418881 32.4881 0.275548 32.4667 0.998564L32.3667 3.99227L29.7264 3.90155C29.5662 3.89748 29.4939 3.9477 29.4238 4.08726C29.1996 4.50416 29.0816 4.83083 29.0816 5.37478C29.0816 5.81768 29.2841 5.86493 29.4646 5.86493L32.2118 5.94315L32.2034 11.6627C32.2034 12.8757 31.4314 14.4494 30.0616 15.7583C30.0616 15.7583 30.1794 15.3631 30.1727 14.9485C30.1727 13.7749 29.4111 12.7114 28.3957 11.9588L25.9173 10.11C26.4368 9.51405 27.317 8.33206 27.317 7.33399C27.317 6.56015 26.8263 6.23507 25.9116 6.23507C24.6206 6.23507 23.1234 7.40754 23.1234 9.14649C23.1234 9.78037 23.4078 10.3509 23.8401 10.7873C23.2432 11.9103 22.3987 13.3879 21.7716 14.4402C21.2979 15.2459 20.4966 16.4803 20.0225 16.4803C19.673 16.4803 19.5114 15.9349 19.5114 13.8397C19.5114 12.099 19.6361 10.2064 19.6987 8.38973C19.6987 7.97333 19.6298 7.58919 19.0847 7.21259C18.5832 6.89397 17.9638 6.44898 17.3259 6.44898C15.9077 6.44898 14.9415 7.74304 14.2788 9.00842C13.5929 10.3199 13.222 11.425 12.6988 13.0285L12.7565 7.51008C12.7744 7.11661 12.6742 6.96384 12.3566 6.82994C11.9447 6.65673 11.3384 6.45702 10.8006 6.45702C10.3511 6.45702 10.2965 6.64919 10.2965 7.1175L10.236 13.7391L10.2291 16.293C10.2291 18.5955 10.5199 18.9795 11.8978 18.9795C12.6606 18.9795 12.905 18.8906 12.9201 18.2618C12.941 17.8459 13.1416 16.8383 13.413 15.8278C14.2067 12.8452 15.1471 10.4862 16.7687 8.6882C16.9377 8.5137 17.0685 8.57614 17.0418 8.8236C17.0418 8.8236 16.7855 12.86 16.7855 14.511C16.7855 17.4474 17.2411 18.9796 18.7145 18.9796C20.1605 18.9796 21.5808 17.1372 22.356 15.8935L24.843 11.7686C26.4545 13.1302 27.5791 14.186 27.5791 15.4703C27.5791 16.2686 27.0711 17.0495 26.2975 17.0495C25.3306 17.0495 24.7129 16.0385 24.0598 16.0385C23.5178 16.0385 22.8221 17.0761 22.8221 17.6654C22.8221 18.2216 24.0462 19.0086 26.2426 19.0086C29.485 19.0086 31.2243 16.8021 32.2681 14.3587C32.4679 17.2587 33.6332 18.9527 35.4506 18.9527C36.6427 18.9527 38.0205 17.4592 38.6472 15.6349C38.6472 15.6349 38.7091 16.1085 39.185 17.0787C39.8402 18.3458 40.8362 18.9276 42.0733 18.9276C43.6121 18.9276 44.9282 18.0025 45.7317 16.4504C45.8535 17.6265 46.8494 18.9218 48.4509 18.9218C49.4562 18.9218 50.3727 18.158 50.9743 16.8999C50.9743 16.8999 51.7536 18.9778 54.0076 18.9778C55.2735 18.9778 56.7726 17.8148 57.1309 16.9698L57.1703 18.1987L53.8261 21.2568C52.855 22.1916 51.8221 23.5346 51.8221 25.0215C51.8221 26.9126 53.6227 28 55.2073 28C56.8544 28 57.9473 26.9652 58.546 26.0982C59.2994 24.9762 59.6177 22.8617 59.6177 20.7947L59.543 17.6865C61.7969 15.2297 63.561 11.8339 64.3463 9.43117L66.0572 9.38651C66.3886 9.36437 66.3721 9.4938 66.3263 9.68538C66.0256 10.9454 65.763 12.3724 65.763 13.7935C65.763 16.1413 66.3083 17.163 67.0922 17.998C67.7738 18.6976 68.4516 18.9335 69.165 18.9335C70.5602 18.9335 71.4361 17.791 71.7138 17.0708C72.369 18.3379 73.3342 18.928 74.571 18.928C76.1098 18.928 77.4259 18.0029 78.2296 16.4508C78.3514 17.6269 79.3471 18.9222 80.9487 18.9222C82.1452 18.9222 82.8392 18.2376 83.3849 16.9477C83.3959 17.3626 83.412 17.8049 83.4243 18.2196C83.4388 18.4342 83.6117 18.57 83.7666 18.626C84.2752 18.8169 84.7216 18.9124 85.1226 18.9124C86.1685 18.9124 86.3956 18.6994 86.3956 18.0214C86.3956 16.9032 86.4286 15.1365 86.7491 13.718C87.0892 12.3057 87.6025 10.7069 88.3108 9.59446C88.3746 9.47951 88.5308 9.50969 88.5377 9.64895C88.6394 12.0291 88.7999 16.0583 89.4304 17.1014C89.7416 17.5989 90.2227 17.9615 90.9428 17.9615C91.2804 17.9615 91.6943 17.8187 91.8002 17.7297C91.9075 17.6467 91.9616 17.5545 91.9551 17.3835C91.9551 14.3407 92.912 11.3949 93.8703 9.4144C93.8966 9.35563 93.9713 9.35107 93.9688 9.42839L93.9153 11.6208C93.9153 15.2216 94.1771 17.4964 95.9909 18.5901C96.3475 18.7879 96.7496 18.8913 97.1583 18.8901C98.0863 18.8901 98.9278 18.3762 99.3438 17.5496C99.6826 16.9073 100 15.671 100 14.9707C100 14.6996 100.003 14.2584 99.5551 14.2584C99.3093 14.2584 99.1617 14.4381 99.1029 14.7095C98.9601 15.2977 98.8428 15.8021 98.6212 16.3837C98.4094 16.9389 98.0933 17.2622 97.7185 17.2622C97.2783 17.2622 97.0549 16.9186 96.9271 16.7063C96.3654 15.8566 96.3203 13.9048 96.3203 12.2756L96.4556 8.08232C96.4556 7.7354 96.3095 7.32019 95.7697 7.01407C95.4073 6.80721 94.4908 6.41781 93.9292 6.41781C93.4085 6.41781 93.1565 6.71023 92.9688 7.13954C92.6163 7.91059 91.4386 10.935 91.1227 13.3939C91.1114 13.4587 91.0299 13.4724 91.0242 13.3897C90.8601 11.6508 90.7759 9.55574 90.7777 8.14227C90.7777 7.71495 90.6723 7.1041 89.7582 6.70825C89.3139 6.52551 88.9465 6.41364 88.4977 6.41364C87.941 6.41364 87.8212 6.68383 87.6218 7.04186C86.9911 8.19746 86.555 9.70444 85.9012 11.6053L85.9111 7.25567C85.9111 7.05229 85.7854 6.78567 85.4252 6.71391C84.5322 6.51042 84.1185 6.41801 83.7665 6.41801C83.5101 6.41801 83.3693 6.6206 83.3693 6.83967L83.3213 14.2558C83.1486 15.1637 82.4486 17.3307 81.4555 17.3307C80.6404 17.3307 80.26 16.5117 80.26 13.0886L80.4079 7.52536C80.4079 7.17398 80.1753 7.02638 79.8363 6.87759C79.3515 6.68661 78.9658 6.61077 78.4731 6.61077C77.8547 6.61077 77.6425 6.90429 77.7676 7.60934C77.0878 6.69733 76.4082 6.19328 75.2076 6.19328C72.7972 6.19328 70.9803 9.06837 70.9803 13.2465C70.9567 14.418 71.2422 15.5825 71.2422 15.5825C71.0241 16.5548 70.5113 17.3474 69.803 17.3474C68.9094 17.3474 68.34 16.0947 68.34 13.9235C68.34 11.7459 69.1764 9.28992 69.1764 8.62428C69.1764 7.85034 68.665 7.36069 67.7598 7.36069C67.3063 7.36069 65.6242 7.73907 64.7618 7.86325C64.7618 7.86325 64.8591 7.45598 64.8519 7.13576C64.8519 6.37265 64.4908 5.89441 63.5944 5.89441C62.499 5.89441 61.6947 6.67003 61.6947 7.99328C61.6947 8.58696 62.0396 9.13627 62.496 9.43137C61.9035 11.8819 60.9402 13.7044 59.5206 15.7403L59.6402 7.49608C59.6402 7.22808 59.5682 7.06162 59.0388 6.85783C58.7589 6.73793 58.3027 6.59946 57.7278 6.59946C56.8944 6.59946 56.9496 7.18956 56.9941 7.63137C56.6129 6.96097 55.7781 6.16519 54.4903 6.16519C50.981 6.16519 49.9037 11.4717 50.432 15.2402C50.432 15.6997 49.9795 17.3307 48.9576 17.3307C48.1425 17.3307 47.7621 16.5117 47.7621 13.0886L47.9115 7.52536C47.9115 7.17388 47.6772 7.02628 47.3382 6.87759C46.8534 6.68661 46.4691 6.61077 45.9764 6.61077C45.3579 6.61077 45.1457 6.90429 45.2708 7.60924C44.591 6.69723 43.9101 6.19318 42.7094 6.19318C40.299 6.19318 38.458 8.8226 38.458 13.0005C38.458 14.5953 37.0732 17.029 36.1022 17.029C35.5627 17.029 34.9884 16.047 34.9884 13.5381C34.9911 11.8279 35.2263 6.00608 35.2263 6.00608L38.6158 5.95158C38.7775 5.95009 38.8712 5.7748 38.9312 5.6668C39.0868 5.35363 39.1621 5.14509 39.1621 4.77038C39.1621 4.4323 39.0939 4.30882 38.6566 4.2844L35.2783 4.08329L35.4221 0.962533C35.4322 0.7655 35.3123 0.637056 35.0954 0.540872C34.4414 0.287261 33.6394 0.0419873 33.1315 0.0418881ZM43.3899 8.219C44.2937 8.219 45.2107 9.03631 45.2107 11.936C45.2107 15.587 43.8693 17.2857 42.8379 17.2857C41.8709 17.2857 41.1369 15.9323 41.1369 13.2739C41.1369 10.5868 41.8537 8.219 43.3899 8.219ZM75.9356 8.219C76.8393 8.219 77.7563 9.03631 77.7563 11.936C77.7563 15.587 76.4149 17.2857 75.3835 17.2857C74.4165 17.2857 73.6824 15.9323 73.6824 13.2739C73.6825 10.5868 74.3993 8.219 75.9356 8.219ZM55.2932 8.23577C56.4726 8.23577 56.9943 9.4412 56.9943 11.7782C56.9943 15.3017 55.9381 17.3078 54.6553 17.3078C53.8364 17.3078 52.8947 15.9744 52.9444 13.3519C52.9444 11.6751 53.4957 8.23577 55.2932 8.23577ZM57.2899 20.0226V21.4105C57.2899 26.0158 56.0524 26.8018 55.058 26.8018C54.6812 26.8018 53.7583 26.5196 53.7583 25.3803C53.7583 23.7877 55.4375 21.9759 55.9593 21.416L57.2899 20.0226Z" fill="white"/>
</svg>
